<?xml version="1.0" standalone="no"?>
<!DOCTYPE svg PUBLIC "-//W3C//DTD SVG 20010904//EN"
 "http://www.w3.org/TR/2001/REC-SVG-20010904/DTD/svg10.dtd">
<svg version="1.0" xmlns="http://www.w3.org/2000/svg"
 width="512.000000pt" height="512.000000pt" viewBox="0 0 512.000000 512.000000"
 preserveAspectRatio="xMidYMid meet">

<g transform="translate(0.000000,512.000000) scale(0.100000,-0.100000)"
fill="#000000" stroke="none">
<path d="M196 4749 c-72 -12 -105 -28 -112 -56 -10 -39 2 -100 32 -160 53
-110 94 -139 719 -518 l580 -351 88 -134 c202 -308 221 -335 245 -338 32 -5
44 8 97 99 47 79 47 79 89 79 57 0 76 17 141 121 65 106 74 140 47 188 l-19
35 53 88 c51 87 57 115 30 137 -6 5 -134 20 -283 34 l-273 26 -267 162 c-846
513 -918 555 -978 571 -83 22 -132 27 -189 17z m164 -116 c29 -9 271 -150 539
-312 485 -295 486 -296 489 -331 6 -66 -67 -142 -112 -118 -12 6 -115 68 -231
138 -116 70 -327 198 -470 284 -268 162 -331 211 -365 281 -33 68 -29 75 39
75 32 0 82 -8 111 -17z m1405 -840 c132 -80 246 -151 253 -158 10 -9 4 -26
-34 -88 l-47 -76 -37 22 c-20 12 -141 85 -268 162 l-231 140 23 25 c33 35 66
91 66 114 0 26 3 24 275 -141z"/>
<path d="M2882 3948 c-105 -157 -202 -328 -202 -356 0 -37 18 -52 165 -138 55
-32 101 -59 103 -60 2 -1 -72 -132 -164 -290 -215 -373 -208 -358 -195 -382 6
-11 236 -149 511 -308 275 -158 500 -291 500 -294 0 -3 -201 -100 -447 -215
l-448 -210 -120 -3 c-66 -2 -126 -8 -132 -14 -9 -7 -13 -45 -13 -124 l0 -114
-135 0 -135 0 0 229 0 229 -31 26 c-30 25 -34 26 -175 26 l-144 0 0 470 0 471
-25 24 c-22 23 -32 25 -108 25 -123 0 -131 -8 -135 -139 l-4 -100 -397 -3
-397 -3 -60 -30 c-60 -31 -70 -42 -560 -590 l-45 -50 3 -585 3 -585 23 -42
c12 -24 41 -55 64 -70 l42 -28 473 -5 474 -5 23 -57 c79 -195 269 -305 476
-277 161 23 304 140 356 293 l16 46 414 0 c325 0 414 -3 414 -12 0 -31 63
-142 107 -189 146 -157 382 -188 563 -74 39 25 121 109 139 144 12 22 13 21
43 -23 62 -95 182 -169 298 -185 210 -28 413 91 480 282 l18 52 204 5 c223 6
232 8 271 70 20 33 22 50 25 240 5 254 -3 295 -63 355 -45 45 -102 65 -185 65
l-40 0 0 50 c0 118 -76 200 -185 200 -25 0 -45 2 -45 4 0 2 122 209 270 461
150 253 270 468 270 481 0 30 26 14 -575 360 -275 158 -592 341 -705 406 -113
66 -214 117 -225 116 -11 -2 -37 -28 -58 -58 -21 -30 -42 -56 -46 -58 -9 -3
-407 223 -430 244 -11 10 -7 24 29 86 48 81 55 135 26 179 -17 27 -103 79
-129 79 -9 0 -29 -19 -45 -42z m766 -603 c42 -25 83 -49 90 -54 11 -6 -42
-103 -228 -417 -132 -225 -245 -413 -250 -418 -7 -7 -504 268 -537 298 -10 9
0 34 47 116 33 57 62 105 64 107 1 2 105 -56 230 -128 179 -104 232 -130 251
-125 29 7 43 49 25 71 -6 8 -110 71 -231 141 -120 69 -219 130 -219 134 0 9
107 197 120 213 4 5 80 -33 168 -83 104 -59 169 -90 183 -88 18 2 44 36 109
140 47 76 89 138 93 138 4 0 43 -20 85 -45z m538 -311 c187 -108 340 -197 341
-198 2 -2 -483 -825 -490 -833 -4 -3 -183 97 -679 383 -9 6 114 214 126 214 5
0 127 -68 270 -152 325 -189 310 -182 336 -168 25 13 36 55 20 75 -7 8 -140
88 -296 177 l-283 162 27 46 c123 212 287 490 288 490 1 0 154 -88 340 -196z
m622 -360 c56 -32 101 -64 100 -69 -7 -26 -301 -515 -310 -515 -17 0 -278 152
-278 162 0 5 69 126 153 268 l152 259 40 -23 c22 -12 86 -49 143 -82z m-3308
-339 l0 -265 -170 0 -170 0 0 178 c0 237 12 222 -179 222 l-148 0 -173 -200
-174 -200 -103 0 c-57 0 -103 2 -103 5 0 11 411 464 438 483 15 11 43 25 62
30 20 6 184 11 378 11 l342 1 0 -265z m2908 -266 l139 -82 -60 -101 c-32 -55
-61 -103 -63 -105 -2 -2 -69 34 -149 79 -140 79 -145 83 -132 104 7 11 36 58
63 104 27 45 52 82 56 82 4 0 69 -37 146 -81z m-319 -225 c130 -74 240 -140
245 -145 6 -5 -208 -9 -549 -9 -307 0 -556 2 -553 5 10 10 593 283 607 284 8
1 120 -60 250 -135z m-3639 -178 c0 -245 2 -287 16 -300 13 -14 58 -16 336
-16 285 0 323 2 340 17 17 15 18 38 18 300 l0 283 170 0 170 0 0 -253 0 -253
-62 -12 c-107 -20 -157 -52 -270 -173 l-103 -109 -350 0 -350 1 -82 72 -82 72
-1 328 0 327 125 0 125 0 0 -284z m4409 -350 c41 -22 51 -55 51 -171 l0 -105
-216 0 -217 0 -59 65 c-104 114 -257 169 -398 145 -121 -21 -226 -84 -292
-176 l-33 -46 -30 39 c-97 124 -217 185 -364 185 -134 0 -240 -49 -335 -154
l-61 -68 -337 0 -338 0 0 150 0 150 1300 0 c1107 0 1305 -2 1329 -14z m-687
-403 c61 -55 63 -146 5 -200 -46 -42 -94 -51 -144 -27 -97 48 -111 172 -26
232 49 35 124 32 165 -5z m-2471 -12 c34 -34 39 -44 39 -86 0 -66 -28 -109
-86 -131 -56 -21 -110 -8 -148 36 -77 93 -16 220 107 220 44 0 53 -4 88 -39z
m1674 19 c20 -12 39 -37 49 -62 53 -132 -109 -246 -212 -150 -91 85 -36 232
87 232 26 0 56 -8 76 -20z"/>
<path d="M2244 3481 c-79 -36 -118 -121 -100 -216 22 -117 240 -216 412 -187
102 17 110 32 74 137 -69 200 -255 328 -386 266z m124 -100 c46 -24 113 -95
141 -150 12 -22 21 -43 21 -47 0 -4 -31 -4 -68 -2 -74 5 -164 40 -201 77 -32
32 -28 83 10 115 37 31 48 32 97 7z"/>
</g>
</svg>
